<?xml version="1.0" standalone="no"?>
<!DOCTYPE svg PUBLIC "-//W3C//DTD SVG 20010904//EN"
 "http://www.w3.org/TR/2001/REC-SVG-20010904/DTD/svg10.dtd">
<svg version="1.0" xmlns="http://www.w3.org/2000/svg"
 width="3543.000000pt" height="3543.000000pt" viewBox="0 0 3543.000000 3543.000000"
 preserveAspectRatio="xMidYMid meet">

<g transform="translate(0.000000,3543.000000) scale(0.100000,-0.100000)"
fill="#000000" stroke="none">
<path d="M9529 31708 c-25 -29 -50 -61 -58 -70 -10 -14 -13 -70 -12 -250 2
-346 -27 -597 -105 -901 -228 -885 -747 -1615 -1529 -2149 -432 -296 -999
-528 -1495 -613 -94 -16 -95 -17 -142 -68 -27 -28 -48 -57 -48 -64 0 -7 25
-54 57 -105 105 -174 323 -572 453 -828 309 -613 508 -1091 735 -1760 174
-515 275 -903 364 -1405 78 -433 106 -781 98 -1200 -17 -870 -164 -1574 -742
-3550 -398 -1360 -574 -2256 -637 -3240 -16 -253 -16 -975 0 -1185 83 -1094
296 -2047 698 -3128 540 -1450 1132 -2519 1904 -3437 318 -378 924 -908 1385
-1211 283 -186 708 -411 1065 -565 437 -187 437 -188 770 -289 601 -182 1033
-286 1455 -350 181 -27 570 -82 640 -90 44 -5 159 -18 255 -29 214 -25 519
-46 955 -66 182 -9 364 -20 405 -25 580 -76 1057 -304 1464 -700 133 -130 246
-261 246 -286 0 -8 5 -14 10 -14 6 0 10 4 10 9 0 19 124 165 228 268 375 372
822 606 1337 699 142 26 224 33 560 49 772 36 1182 79 1960 205 608 99 1449
336 1950 550 577 247 918 426 1295 681 490 332 1047 831 1377 1234 444 544
783 1065 1156 1775 121 231 383 816 529 1180 747 1864 995 3441 817 5200 -42
421 -111 832 -230 1370 -95 426 -164 685 -422 1585 -287 998 -390 1380 -491
1831 -203 901 -249 1697 -140 2459 79 556 200 1066 383 1605 210 622 312 883
536 1370 204 444 427 870 657 1258 46 77 76 138 72 145 -4 6 -24 33 -45 58
-38 45 -38 45 -141 63 -146 25 -379 86 -543 141 -820 277 -1541 827 -2004
1529 -395 599 -615 1376 -586 2063 l7 162 -58 70 -58 71 -8152 0 -8152 0 -43
-52z m2779 -1904 c195 -40 307 -146 357 -339 8 -32 15 -69 15 -81 0 -23 12
-21 -291 -40 l-106 -7 -11 45 c-25 98 -86 150 -180 152 -101 2 -152 -38 -152
-117 0 -60 35 -82 205 -127 247 -66 359 -116 447 -198 92 -86 132 -190 131
-337 -2 -203 -107 -374 -277 -454 -105 -50 -196 -64 -369 -58 -163 5 -231 19
-324 64 -131 64 -242 251 -255 428 l-3 40 150 12 c83 6 173 12 200 12 l51 1
12 -56 c27 -130 103 -198 222 -198 109 0 180 59 180 152 0 96 -54 136 -267
197 -328 93 -460 203 -494 411 -38 236 118 449 366 498 98 20 298 20 393 0z
m10830 0 c195 -40 307 -146 357 -339 8 -32 15 -69 15 -81 0 -23 12 -21 -291
-40 l-106 -7 -11 45 c-25 98 -86 150 -180 152 -101 2 -152 -38 -152 -117 0
-60 35 -82 205 -127 247 -66 359 -116 447 -198 92 -86 132 -190 131 -337 -2
-203 -107 -374 -277 -454 -105 -50 -196 -64 -369 -58 -163 5 -231 19 -324 64
-131 64 -242 251 -255 428 l-3 40 150 12 c83 6 173 12 200 12 l51 1 12 -56
c27 -130 103 -198 222 -198 109 0 180 59 180 152 0 96 -54 136 -267 197 -328
93 -460 203 -494 411 -38 236 118 449 366 498 98 20 298 20 393 0z m-9440
-101 c11 -49 58 -251 103 -451 47 -206 86 -355 89 -345 4 10 51 213 105 451
l99 432 278 0 278 0 0 -760 0 -760 -175 0 -175 0 -2 554 -3 554 -126 -551
-126 -552 -158 0 -159 0 -125 552 -126 552 -3 -554 -2 -555 -175 0 -175 0 0
760 0 760 279 0 279 0 20 -87z m1824 -193 l3 -280 214 280 213 280 280 0 c268
0 279 -1 266 -18 -7 -10 -114 -136 -238 -281 -124 -144 -226 -267 -228 -274
-1 -7 110 -219 248 -472 137 -253 250 -463 250 -467 0 -5 -116 -8 -258 -8
l-257 0 -139 305 c-76 168 -142 304 -146 303 -4 -2 -53 -57 -109 -122 l-101
-119 0 -184 0 -183 -210 0 -210 0 0 760 0 760 210 0 210 0 2 -280z m3051 252
c118 -48 189 -127 229 -256 32 -100 32 -271 1 -371 -41 -131 -135 -232 -258
-276 -51 -19 -88 -23 -252 -27 l-193 -4 0 -279 0 -279 -215 0 -215 0 0 761 0
760 423 -3 c415 -3 423 -3 480 -26z m1087 -547 l0 -575 325 0 325 0 0 -185 0
-185 -535 0 -535 0 0 760 0 760 210 0 210 0 0 -575z m1402 58 c3 -511 3 -519
25 -559 60 -113 195 -153 313 -94 45 23 64 44 92 105 23 50 23 53 26 558 l3
507 210 0 210 0 -3 -527 c-4 -512 -5 -530 -26 -601 -34 -113 -78 -190 -150
-265 -123 -126 -239 -162 -497 -154 -252 9 -356 46 -464 164 -73 79 -118 169
-142 286 -17 83 -19 140 -19 595 l0 502 210 0 209 0 3 -517z m3914 -2554 c35
-6 64 -15 64 -20 0 -5 7 -9 14 -9 33 0 116 -114 116 -159 0 -11 5 -23 10 -26
7 -4 10 -240 10 -676 0 -439 -3 -669 -10 -669 -5 0 -10 -9 -10 -20 0 -31 -37
-98 -72 -128 -16 -15 -37 -34 -47 -42 -9 -8 -34 -16 -56 -18 -22 -1 -44 -7
-49 -12 -14 -14 -1983 -14 -1991 1 -4 6 -13 8 -20 5 -15 -5 -95 36 -136 69
-31 26 -69 96 -69 128 0 14 -4 29 -10 32 -7 4 -10 235 -10 660 0 425 3 656 10
660 6 3 10 18 10 32 0 29 35 97 66 127 11 12 43 33 70 47 l49 27 998 1 c698 1
1018 -2 1063 -10z m-13192 -98 c421 -75 784 -255 1124 -558 l43 -38 -154 -153
-153 -153 -75 66 c-255 226 -576 372 -926 421 -152 21 -422 14 -563 -15 -319
-65 -618 -215 -843 -421 l-59 -53 -151 151 -151 152 39 41 c54 55 191 164 295
234 102 68 352 192 471 233 120 42 315 89 439 107 156 21 507 14 664 -14z
m5659 -943 c108 -186 197 -341 197 -346 0 -5 -25 -15 -55 -22 -30 -7 -92 -32
-139 -55 l-84 -41 -126 507 c-69 279 -126 511 -126 516 0 10 70 -107 333 -559z
m1092 520 c-3 -13 -34 -142 -69 -288 -36 -146 -88 -362 -116 -480 -28 -118
-54 -218 -56 -222 -3 -5 -33 7 -67 26 -34 19 -97 46 -139 61 -43 15 -78 29
-78 32 0 6 523 893 527 893 2 0 1 -10 -2 -22z m-6848 -358 c240 -49 485 -169
658 -325 l50 -44 -152 -152 -151 -152 -25 19 c-108 84 -151 112 -229 151 -272
135 -595 132 -868 -8 -52 -27 -121 -70 -154 -96 -32 -27 -65 -52 -72 -58 -11
-8 -50 26 -165 141 l-151 151 47 44 c194 179 464 304 750 345 123 18 333 11
462 -16z m4523 -636 c52 -14 151 -41 220 -59 69 -19 193 -52 275 -75 135 -38
261 -72 367 -101 l38 -10 -34 -67 c-35 -71 -76 -182 -76 -207 0 -8 -2 -15 -5
-15 -3 0 -40 22 -83 48 -546 343 -813 512 -806 512 5 0 52 -12 104 -26z m3224
-108 c-383 -230 -767 -457 -768 -454 -1 2 -10 31 -19 66 -10 35 -36 100 -58
144 -22 44 -39 81 -37 83 2 1 55 15 118 29 63 14 198 46 300 71 102 25 264 63
360 86 96 22 186 45 200 49 53 18 39 8 -96 -74z m-1441 -10 c187 -59 346 -206
416 -383 24 -62 51 -193 51 -247 -3 -339 -282 -626 -610 -626 -315 0 -583 234
-637 555 -16 94 -16 107 0 200 41 247 214 442 448 505 87 24 251 22 332 -4z
m-6428 -21 c75 -20 188 -76 238 -118 l37 -32 -215 -215 -215 -215 -210 210
c-115 115 -210 214 -210 220 1 28 170 125 263 150 71 19 238 19 312 0z m14063
-348 c-4 -146 -14 -161 -151 -216 -39 -15 -3015 -15 -3054 0 -79 32 -103 47
-124 78 -21 30 -24 49 -27 143 l-4 108 1682 0 1682 0 -4 -113z m-8609 -495
c12 -42 38 -106 57 -142 18 -35 30 -68 26 -72 -4 -4 -55 -18 -112 -32 -192
-44 -824 -195 -859 -205 -19 -6 -36 -9 -37 -8 -2 2 888 535 897 536 3 1 15
-34 28 -77z m2100 -232 c241 -151 437 -277 435 -279 -2 -2 -61 13 -131 33 -70
19 -229 63 -353 97 -124 33 -290 78 -368 100 -79 21 -146 39 -148 39 -2 0 11
30 29 68 37 72 77 182 77 208 0 9 4 14 10 12 5 -1 207 -127 449 -278z m-1701
-273 c44 -28 184 -87 206 -87 8 0 18 -4 21 -10 3 -5 -108 -204 -248 -442 -140
-238 -259 -442 -265 -453 -17 -31 -15 -21 38 202 28 114 65 267 82 338 50 212
108 449 113 463 6 16 10 16 53 -11z m1013 -520 c69 -280 123 -505 119 -500 -7
8 -236 400 -288 493 -14 25 -35 61 -48 81 -12 20 -62 105 -112 191 l-89 154
67 17 c36 10 100 34 141 55 41 21 76 33 78 27 3 -5 62 -239 132 -518z m-1956
-377 c-208 -89 -276 -121 -360 -167 -271 -150 -477 -304 -701 -528 -95 -93
-209 -217 -254 -274 -328 -417 -545 -883 -649 -1400 -48 -233 -65 -407 -65
-666 0 -404 60 -753 192 -1127 298 -841 946 -1534 1752 -1874 l85 -35 -75 6
c-479 39 -1017 249 -1425 555 -240 180 -474 419 -643 658 -298 420 -487 897
-563 1423 -24 170 -37 629 -21 746 13 94 90 286 218 543 209 419 447 757 763
1082 465 479 973 802 1606 1018 127 44 192 62 140 40z m2805 -39 c915 -308
1660 -908 2188 -1761 172 -278 384 -741 404 -883 16 -117 3 -576 -21 -746 -76
-526 -265 -1003 -563 -1423 -197 -278 -481 -556 -758 -740 -236 -157 -499
-282 -770 -366 -148 -47 -394 -95 -540 -107 l-75 -6 85 35 c806 340 1454 1033
1752 1874 132 374 192 723 192 1127 0 259 -17 433 -65 666 -104 517 -321 983
-649 1400 -45 57 -159 181 -254 274 -224 224 -430 378 -701 528 -84 46 -152
78 -360 167 -47 20 0 7 135 -39z m-4591 -518 c-416 -426 -717 -968 -864 -1553
-72 -288 -95 -461 -102 -770 -10 -427 38 -751 167 -1140 210 -633 598 -1167
1121 -1541 481 -344 1067 -538 1629 -539 95 -1 140 -4 129 -10 -38 -22 -321
-89 -499 -118 -134 -22 -618 -24 -750 -4 -418 65 -765 190 -1094 395 -74 46
-215 144 -226 157 -3 3 -39 32 -80 65 -101 78 -306 287 -405 410 -233 290
-446 692 -547 1030 -30 100 -30 101 -24 275 4 96 11 229 17 295 97 1184 628
2271 1478 3027 79 70 147 128 150 128 2 0 -42 -48 -100 -107z m6302 -31 c768
-679 1293 -1682 1438 -2747 26 -189 38 -342 47 -565 6 -174 6 -175 -24 -275
-101 -338 -314 -740 -547 -1030 -99 -123 -304 -332 -405 -410 -41 -33 -77 -62
-80 -65 -11 -13 -152 -111 -226 -157 -329 -205 -676 -330 -1094 -395 -132 -20
-616 -18 -750 4 -178 29 -461 96 -499 118 -11 6 34 9 129 10 840 1 1685 423
2231 1112 388 490 615 1073 680 1743 24 248 0 680 -52 945 -129 657 -443 1262
-908 1745 -121 125 -114 122 60 -33z m-7626 -941 c-178 -356 -293 -741 -352
-1177 -25 -187 -25 -667 0 -854 63 -469 198 -882 407 -1247 648 -1126 1857
-1673 3089 -1397 217 49 476 141 673 240 l88 44 -15 -37 c-21 -50 -31 -60
-159 -159 -547 -425 -1162 -644 -1811 -644 -429 0 -808 88 -1188 276 -437 216
-812 547 -1095 968 -104 154 -117 185 -176 428 -50 200 -85 393 -113 618 -25
208 -26 831 0 1040 88 714 289 1319 631 1898 43 72 80 132 82 132 2 0 -26 -58
-61 -129z m8925 -26 c331 -565 531 -1172 617 -1875 26 -209 25 -832 0 -1040
-28 -225 -63 -418 -113 -618 -59 -243 -72 -274 -176 -428 -283 -421 -658 -752
-1095 -968 -380 -188 -759 -276 -1188 -276 -649 0 -1264 219 -1811 644 -128
99 -138 109 -159 159 l-15 37 88 -44 c129 -65 265 -120 421 -170 1022 -329
2098 -71 2851 684 494 495 795 1130 897 1890 25 187 25 667 0 854 -59 437
-173 819 -353 1180 -36 72 -61 127 -56 121 6 -5 47 -73 92 -150z m-9696 -940
c-69 -216 -120 -450 -150 -690 -14 -106 -19 -211 -19 -430 0 -306 8 -406 51
-645 230 -1259 1093 -2210 2239 -2465 88 -20 98 -23 50 -19 -33 3 -107 12
-164 20 -89 13 -105 13 -120 1 -18 -17 -298 -176 -579 -330 l-192 -106 -100
50 c-328 164 -607 381 -857 666 -79 90 -106 141 -208 398 -381 960 -429 2060
-134 3080 56 191 204 593 215 582 2 -1 -13 -52 -32 -112z m10467 -41 c301
-751 405 -1594 298 -2409 -49 -376 -148 -756 -284 -1100 -102 -257 -129 -308
-208 -398 -244 -278 -520 -494 -837 -656 l-85 -44 -195 108 c-283 156 -544
306 -551 318 -8 12 -131 4 -264 -17 -144 -22 -158 -18 -30 10 1140 248 2010
1205 2239 2464 43 237 51 340 51 640 0 419 -45 727 -161 1098 -19 62 -37 121
-40 130 -15 49 20 -27 67 -144z m-11094 -1076 c-3 -8 -6 -5 -6 6 -1 11 2 17 5
13 3 -3 4 -12 1 -19z m11690 0 c-3 -8 -6 -5 -6 6 -1 11 2 17 5 13 3 -3 4 -12
1 -19z m-11706 -105 c-21 -141 -34 -391 -28 -578 29 -909 369 -1729 959 -2312
210 -208 433 -373 681 -503 65 -34 117 -64 115 -65 -9 -9 -287 -145 -295 -145
-5 0 -17 -8 -27 -19 -24 -26 -6 -37 74 -45 236 -23 919 -190 1350 -331 208
-68 598 -211 613 -225 22 -20 -358 -131 -533 -156 -19 -3 -40 -7 -47 -9 -56
-19 -523 -28 -668 -13 -446 46 -954 249 -1300 521 -112 88 -333 421 -506 762
-334 662 -501 1367 -501 2125 0 345 25 612 89 945 26 141 44 174 24 48z
m11743 -48 c62 -321 88 -602 88 -945 0 -758 -167 -1463 -501 -2125 -173 -341
-394 -674 -506 -762 -346 -272 -854 -475 -1300 -521 -145 -15 -612 -6 -668 13
-7 2 -30 7 -52 10 -151 22 -526 129 -508 145 9 9 184 79 338 135 229 84 522
175 885 275 171 47 563 131 745 159 80 12 110 21 112 31 1 10 -57 45 -177 104
l-179 89 124 68 c557 303 1015 807 1289 1415 146 325 235 641 287 1029 18 132
22 210 23 445 0 257 -4 324 -30 525 -12 91 4 42 30 -90z m-12134 -1306 c6
-101 15 -222 21 -269 58 -471 208 -934 426 -1319 411 -727 1047 -1231 1783
-1416 512 -128 1031 -102 1534 76 l116 41 88 -37 c128 -55 482 -227 482 -235
0 -9 -142 -122 -230 -184 -184 -128 -443 -265 -644 -341 -147 -55 -417 -123
-556 -140 -334 -40 -596 -31 -892 30 -227 47 -415 113 -636 223 l-154 76 -126
131 c-580 597 -997 1423 -1158 2295 -63 341 -92 732 -79 1063 4 109 9 196 11
194 2 -2 9 -87 14 -188z m12521 -404 c-18 -353 -60 -638 -140 -960 -192 -762
-580 -1472 -1093 -2000 l-126 -131 -154 -76 c-221 -110 -409 -176 -636 -223
-296 -61 -558 -70 -892 -30 -139 17 -409 85 -556 140 -195 73 -448 206 -628
330 -51 35 -205 153 -230 176 -10 9 298 164 472 238 l102 44 138 -46 c502
-167 990 -188 1492 -62 736 185 1372 689 1783 1416 250 441 414 1001 442 1504
3 61 9 148 12 195 7 82 8 78 17 -100 6 -128 6 -256 -3 -415z m-12597 -102 c21
-256 31 -342 75 -593 37 -216 157 -630 254 -875 150 -381 401 -819 636 -1110
l64 -80 -49 42 c-138 116 -347 355 -475 543 -191 281 -363 644 -448 945 -90
317 -135 571 -147 840 -7 164 -14 185 -64 185 -53 0 -55 -11 -53 -283 3 -321
36 -652 94 -932 15 -76 99 -407 109 -430 4 -11 22 -65 39 -120 32 -100 80
-233 106 -290 7 -16 27 -65 45 -108 41 -100 181 -376 249 -492 455 -778 1139
-1393 1924 -1732 104 -44 346 -132 412 -148 28 -7 102 -27 165 -43 98 -26 179
-42 390 -77 152 -25 527 -38 725 -24 311 21 659 86 905 169 93 32 243 87 280
103 337 147 626 312 866 494 30 22 37 23 224 23 187 0 194 -1 224 -23 240
-182 529 -347 866 -494 37 -16 187 -71 280 -103 246 -83 594 -148 905 -169
198 -14 573 -1 725 24 211 35 292 51 390 77 63 16 138 36 165 43 66 16 308
104 412 148 445 192 853 468 1207 815 362 357 620 710 852 1169 45 89 96 197
114 240 18 43 38 92 45 108 26 57 74 190 106 290 17 55 35 109 39 120 10 23
94 354 109 430 58 280 91 611 94 932 2 272 0 283 -53 283 -50 0 -57 -21 -64
-185 -12 -269 -57 -523 -147 -840 -85 -301 -257 -664 -448 -945 -128 -188
-337 -427 -475 -543 l-49 -42 64 80 c235 291 486 729 636 1110 97 245 217 659
254 875 44 251 54 337 75 593 l6 77 425 0 426 0 -6 -222 c-56 -1943 -847
-3766 -2218 -5114 -1136 -1116 -2592 -1818 -4154 -2003 -329 -39 -455 -46
-835 -46 -380 0 -506 7 -835 46 -1306 155 -2555 678 -3587 1501 -695 554
-1287 1233 -1735 1988 -654 1105 -1013 2342 -1050 3628 l-6 222 456 0 455 0 6
-77z m366 20 c20 -107 71 -337 87 -393 8 -30 18 -68 23 -85 97 -357 296 -815
488 -1125 l34 -55 -46 50 c-73 79 -209 262 -292 391 -185 289 -350 686 -434
1044 -24 102 -29 130 -36 178 l-7 52 86 0 86 0 11 -57z m488 -58 c18 -60 48
-157 67 -215 19 -57 33 -105 31 -107 -8 -9 -206 405 -206 432 0 3 17 5 37 3
l37 -3 34 -110z m5142 81 c0 -19 -6 -36 -13 -39 -8 -3 -38 -47 -67 -99 -62
-109 -98 -158 -115 -158 -6 0 -20 -10 -31 -21 -20 -23 -160 -93 -309 -154 -89
-37 -91 -38 -235 -39 -142 0 -146 0 -230 33 -225 90 -451 213 -638 345 -118
84 -201 149 -201 159 -1 4 413 7 919 7 l920 0 0 -34z m2499 27 c0 -10 -83 -75
-201 -159 -187 -132 -413 -255 -638 -345 -84 -33 -88 -33 -230 -33 -144 1
-146 2 -235 39 -149 61 -278 125 -305 150 -14 13 -33 25 -44 27 -12 2 -43 46
-86 122 -38 65 -73 123 -79 129 -6 6 -11 26 -11 44 l0 33 915 0 c503 0 915 -3
914 -7z m3411 1 c0 -27 -198 -439 -207 -431 -1 2 9 37 23 78 14 40 41 126 60
190 50 174 48 169 89 169 19 0 35 -3 35 -6z m556 -46 c-7 -48 -12 -76 -36
-178 -84 -358 -249 -755 -434 -1044 -83 -129 -219 -312 -292 -391 l-46 -50 34
55 c192 310 391 768 488 1125 5 17 15 55 23 85 16 56 67 286 87 393 l11 57 86
0 86 0 -7 -52z m-6473 -235 c-3 -76 -7 -139 -8 -141 -2 -2 -104 37 -113 44 -3
2 121 233 125 234 1 0 -1 -62 -4 -137z m795 -97 c-16 -13 -93 -35 -99 -29 -4
4 -9 60 -11 124 l-3 115 58 -104 c32 -57 57 -105 55 -106z m-871 -41 l58 -23
-2 -189 c-1 -103 -5 -211 -8 -239 l-6 -52 -144 43 c-79 23 -148 39 -155 35 -6
-4 -18 -36 -26 -71 -26 -111 -104 -349 -161 -489 -62 -152 -200 -430 -218
-436 -6 -3 -64 21 -129 52 l-118 56 44 46 c315 331 585 786 763 1290 5 15 16
13 102 -23z m958 -60 c161 -443 441 -902 739 -1212 27 -29 48 -54 45 -56 -2
-2 -58 -29 -124 -61 -108 -52 -121 -56 -132 -41 -29 40 -166 322 -216 445 -57
140 -135 378 -161 489 -8 35 -20 67 -26 71 -6 4 -72 -11 -146 -33 -74 -21
-137 -37 -140 -35 -5 6 -24 318 -24 408 l0 65 68 27 c37 15 71 26 76 24 5 -1
23 -42 41 -91z m-6981 -255 c84 -533 300 -1071 599 -1490 459 -644 1095 -1054
1837 -1183 172 -30 613 -32 790 -4 485 78 944 282 1340 598 l99 79 118 -66
c472 -263 874 -578 1183 -925 80 -90 230 -281 230 -293 0 -8 -90 -73 -212
-154 -447 -298 -971 -503 -1498 -586 -265 -41 -656 -53 -905 -27 -1215 127
-2280 824 -2952 1934 -391 645 -614 1381 -663 2187 -13 223 -11 296 5 150 7
-63 20 -162 29 -220z m12907 91 c-20 -344 -61 -621 -136 -928 -411 -1669
-1672 -2913 -3220 -3178 -220 -37 -362 -49 -610 -48 -466 0 -875 75 -1305 240
-332 127 -621 286 -929 509 -6 5 84 126 179 243 176 216 426 449 688 644 227
168 627 415 655 404 6 -3 50 -35 96 -72 382 -302 845 -506 1321 -582 177 -28
618 -26 790 4 742 129 1378 539 1837 1183 345 483 577 1123 630 1735 13 149
15 45 4 -154z m-7087 77 c-45 -75 -260 -328 -373 -438 -169 -165 -365 -320
-561 -442 -149 -93 -207 -120 -228 -109 -95 49 -639 201 -929 260 l-132 26
302 0 c246 0 322 3 412 18 348 58 601 140 905 294 168 85 423 249 540 347 70
59 75 63 64 44z m1532 -214 c363 -242 756 -396 1209 -471 139 -23 629 -26 763
-5 46 7 86 12 88 9 2 -2 -56 -14 -129 -26 -116 -20 -397 -85 -542 -125 -140
-40 -244 -71 -377 -116 -81 -28 -154 -50 -162 -50 -34 0 -315 175 -471 294
-215 163 -447 396 -614 615 -83 110 -83 112 4 41 44 -36 148 -110 231 -166z
m-1593 35 c-166 -356 -373 -668 -611 -920 l-57 -61 -65 30 c-36 16 -120 50
-188 76 l-123 48 98 57 c132 76 259 163 384 262 132 104 441 414 539 541 41
53 76 95 78 94 1 -2 -23 -59 -55 -127z m1387 21 c106 -134 394 -423 529 -529
124 -99 272 -199 399 -271 51 -29 89 -56 85 -60 -4 -4 -30 -15 -58 -25 -27
-10 -108 -43 -179 -73 l-130 -55 -62 65 c-240 254 -449 568 -617 926 -51 109
-65 144 -53 131 2 -2 41 -51 86 -109z m-1267 -166 c51 -14 114 -32 141 -41
l48 -15 -6 -72 c-3 -39 -13 -224 -22 -411 -8 -187 -19 -394 -24 -460 -9 -129
-5 -145 36 -145 29 0 29 3 4 -107 -11 -48 -23 -98 -25 -111 -5 -21 -8 -20 -68
27 -101 79 -282 197 -434 283 -79 44 -143 83 -143 86 0 3 20 41 44 86 114 210
234 507 302 751 45 164 42 155 49 155 4 0 48 -12 98 -26z m1221 14 c3 -7 21
-71 40 -143 70 -250 198 -567 311 -767 25 -44 45 -84 45 -88 0 -4 -48 -34
-107 -66 -130 -71 -326 -201 -445 -294 l-86 -69 -10 27 c-5 15 -17 65 -26 112
-9 47 -19 95 -22 108 -5 18 -2 22 17 22 54 0 53 -2 40 262 -13 252 -27 560
-33 733 l-3 100 125 36 c144 42 149 43 154 27z m-3531 -385 c-7 -2 -21 -2 -30
0 -10 3 -4 5 12 5 17 0 24 -2 18 -5z m6240 -43 c14 -12 50 -32 79 -46 29 -13
78 -40 108 -59 50 -30 193 -112 336 -190 30 -16 105 -56 167 -88 61 -32 119
-65 127 -72 8 -7 35 -21 60 -32 l45 -20 -90 -12 c-49 -7 -108 -19 -130 -27
-22 -7 -80 -21 -130 -30 -49 -9 -109 -22 -132 -30 -23 -8 -89 -25 -145 -39
-200 -46 -313 -77 -343 -90 -16 -8 -59 -22 -95 -30 -35 -9 -73 -21 -84 -27
-11 -6 -65 -23 -120 -38 -56 -15 -115 -34 -132 -43 -17 -9 -53 -21 -80 -28
-27 -6 -60 -18 -72 -26 -13 -8 -47 -21 -75 -30 -29 -8 -61 -20 -72 -27 -11 -7
-57 -25 -102 -40 -46 -15 -85 -31 -88 -36 -3 -5 -34 -18 -70 -30 -36 -12 -67
-25 -70 -30 -3 -5 -27 -16 -53 -24 -116 -39 -705 -353 -791 -422 -14 -12 -40
-28 -57 -37 -17 -9 -58 -35 -90 -57 -33 -22 -80 -55 -106 -72 -27 -17 -48 -35
-48 -39 0 -4 -9 -11 -20 -14 -11 -4 -42 -24 -68 -46 -26 -21 -60 -50 -77 -64
-38 -31 -201 -170 -239 -204 -132 -120 -392 -414 -470 -533 l-37 -58 -183 0
-184 0 -38 58 c-21 31 -43 62 -49 67 -6 6 -18 22 -27 36 -79 123 -447 490
-639 635 -36 28 -75 59 -86 70 -12 10 -43 34 -70 52 -26 18 -64 43 -83 57 -82
56 -168 114 -213 141 -26 16 -62 39 -80 51 -18 13 -45 30 -62 38 -16 8 -68 37
-115 64 -111 64 -514 265 -562 281 -21 6 -40 15 -43 20 -3 5 -34 18 -70 30
-36 12 -67 25 -70 30 -3 5 -42 21 -88 36 -45 15 -91 33 -102 40 -11 6 -47 20
-80 29 -33 9 -65 21 -71 26 -13 11 -160 61 -279 95 -49 15 -112 34 -140 44
-98 36 -181 62 -255 79 -41 10 -93 24 -115 31 -64 19 -269 69 -415 101 -74 16
-146 33 -160 38 -14 6 -52 13 -85 17 -33 3 -64 9 -69 11 -4 3 18 19 50 35 68
34 142 74 164 87 8 6 63 36 123 68 59 32 131 72 161 88 30 17 86 48 126 70 40
22 93 52 119 67 25 15 69 38 96 52 28 13 57 31 65 41 11 14 26 15 89 10 42 -3
112 -13 156 -20 44 -8 134 -22 200 -30 66 -9 145 -23 175 -31 30 -8 88 -22
129 -29 41 -8 104 -23 140 -35 36 -11 109 -31 161 -45 166 -42 281 -74 292
-81 12 -7 147 -56 288 -104 96 -32 210 -78 226 -91 6 -5 35 -18 65 -28 30 -10
68 -26 84 -34 17 -9 77 -39 135 -67 58 -28 116 -58 130 -66 14 -7 41 -21 60
-29 19 -9 64 -33 100 -55 36 -21 81 -48 100 -60 19 -11 51 -32 70 -45 19 -14
56 -39 82 -57 82 -57 142 -103 176 -135 l34 -31 -21 -103 c-12 -57 -34 -169
-51 -249 -16 -80 -30 -166 -30 -192 0 -44 2 -48 48 -81 161 -118 295 -335 336
-542 9 -44 23 -109 31 -145 8 -36 24 -109 36 -163 l21 -98 61 3 61 3 12 60
c18 87 41 195 68 320 27 128 66 225 132 333 50 80 196 235 233 247 18 5 21 14
21 64 0 51 -28 205 -75 411 -8 36 -14 75 -15 86 0 26 75 92 241 211 36 27 85
59 108 73 24 14 64 39 91 57 26 17 63 39 81 48 19 9 60 31 92 48 140 78 388
197 410 197 7 0 21 6 32 14 29 20 137 64 239 97 48 16 94 33 100 38 6 5 44 19
85 30 40 11 79 25 85 30 7 6 49 19 93 30 44 10 89 23 99 29 11 5 70 21 133 36
62 15 121 31 130 36 10 5 60 18 112 29 52 11 121 27 154 35 33 9 112 23 175
31 63 9 133 21 155 26 33 8 216 33 276 38 9 0 28 -8 42 -19z m5852 -1477 c-3
-16 -32 -111 -64 -213 l-58 -185 -138 -1 -139 0 -38 -125 c-21 -68 -54 -172
-72 -230 l-33 -106 113 -68 c63 -37 114 -72 114 -79 0 -28 -127 -411 -135
-409 -9 2 -1352 934 -1366 947 -3 4 26 108 64 231 l71 225 70 1 c39 0 352 9
696 18 344 10 692 19 773 20 l149 1 -7 -27z m-9171 -175 c28 -44 24 -111 -9
-143 -31 -32 -59 -32 -92 1 -23 23 -25 31 -21 81 6 64 23 83 75 83 23 0 37 -7
47 -22z m-7751 -265 c178 -399 291 -668 304 -722 47 -203 -43 -369 -257 -474
-128 -63 -200 -80 -319 -75 -116 5 -184 32 -262 105 -70 65 -115 136 -184 294
-32 74 -59 135 -60 136 -1 2 -122 -49 -271 -111 -148 -63 -272 -111 -276 -107
-9 9 -168 374 -168 386 0 8 1434 621 1461 624 4 1 18 -25 32 -56z m15217 -698
c143 -38 276 -138 330 -248 33 -69 52 -151 45 -197 -3 -17 -7 -43 -10 -60 l-4
-29 45 34 c84 65 172 75 514 63 146 -5 267 -12 270 -14 2 -3 -45 -102 -105
-220 l-110 -215 -335 3 c-334 3 -335 3 -372 -20 -32 -20 -85 -89 -75 -98 2 -2
133 -67 291 -144 l287 -140 -97 -188 c-53 -103 -100 -190 -103 -194 -6 -7
-1405 673 -1425 692 -8 8 278 580 365 731 106 184 211 257 369 258 36 1 90 -6
120 -14z m-14371 -964 c171 -267 310 -486 308 -487 -11 -9 -268 -165 -279
-169 -11 -4 -66 74 -208 295 -120 188 -197 299 -205 296 -24 -9 -195 -117
-195 -123 0 -3 79 -128 175 -278 96 -150 175 -277 175 -281 0 -15 -271 -177
-279 -168 -4 5 -84 128 -176 274 -93 146 -172 269 -176 274 -4 4 -66 -28 -138
-71 l-130 -80 200 -311 c109 -171 199 -313 199 -316 0 -6 -296 -186 -307 -186
-11 1 -628 968 -628 985 0 14 1332 838 1347 833 4 -2 147 -221 317 -487z
m13966 -742 c435 -138 793 -254 798 -258 9 -9 -248 -355 -267 -359 -7 -1 -66
18 -130 43 -98 39 -121 44 -131 33 -7 -7 -73 -95 -148 -194 l-136 -182 85
-102 c46 -57 84 -104 84 -105 0 -6 -262 -350 -268 -352 -4 -1 -224 302 -489
673 l-482 675 142 190 c78 104 144 189 147 189 3 0 361 -113 795 -251z
m-13386 -63 c72 -82 130 -153 129 -158 -2 -4 -203 -177 -448 -384 -245 -207
-446 -379 -448 -383 -1 -4 96 -120 218 -257 121 -137 220 -251 219 -254 0 -9
-289 -245 -298 -245 -5 0 -174 186 -375 414 l-365 414 127 107 c911 772 1088
919 1098 907 6 -7 71 -79 143 -161z m12221 -512 l135 -136 -160 -154 -159
-154 420 -423 421 -422 -131 -127 c-72 -70 -144 -137 -160 -149 l-28 -22 -419
419 -419 419 -47 -45 c-27 -25 -99 -94 -161 -155 l-112 -110 -141 141 -140
140 98 96 c292 286 849 817 858 818 6 0 71 -61 145 -136z m-11305 -427 c86
-77 155 -142 153 -147 -2 -4 -243 -267 -537 -584 l-533 -576 -43 38 c-205 177
-283 248 -281 256 4 19 1062 1155 1073 1153 6 -1 82 -64 168 -140z m841 -652
c297 -202 538 -371 536 -377 -5 -19 -214 -308 -223 -308 -5 0 -89 54 -186 120
-97 66 -180 117 -184 113 -4 -5 -154 -215 -334 -468 -180 -253 -332 -466 -340
-474 -11 -11 -42 6 -194 110 -117 79 -178 126 -172 133 51 67 671 947 671 954
0 5 -81 64 -180 131 l-180 122 41 57 c22 31 73 103 112 159 40 56 77 101 83
98 7 -2 254 -169 550 -370z m9739 -396 c242 -352 441 -645 443 -650 4 -9 -325
-229 -343 -229 -6 0 -190 81 -410 181 -491 222 -505 229 -505 225 0 -1 108
-159 240 -351 l240 -349 -171 -113 c-140 -93 -174 -112 -185 -101 -19 20 -874
1266 -879 1280 -4 13 303 221 334 226 9 1 218 -90 466 -202 247 -112 451 -203
453 -201 2 1 -86 133 -195 291 -110 159 -218 316 -240 350 l-41 61 166 110
c92 61 172 112 177 112 6 0 208 -288 450 -640z m-8629 -238 c114 -55 210 -103
212 -109 3 -10 -207 -1624 -213 -1630 -3 -3 -404 184 -413 192 -3 4 21 137 43
242 4 18 -8 27 -83 62 -48 22 -148 70 -223 105 l-136 65 -84 -99 c-46 -54 -89
-98 -95 -98 -6 -1 -96 39 -200 89 -104 49 -193 92 -199 94 -9 4 1163 1186
1176 1186 3 0 100 -45 215 -99z m7104 -697 c305 -339 555 -619 554 -623 -1 -5
-218 -98 -385 -165 l-36 -15 -83 105 c-61 78 -86 104 -99 99 -22 -8 -435 -178
-439 -180 -1 -1 6 -60 17 -131 11 -71 17 -131 13 -135 -13 -12 -405 -169 -410
-165 -5 6 -134 1637 -129 1642 4 4 429 182 437 183 3 1 255 -276 560 -615z
m-5510 121 c85 -14 167 -28 181 -31 24 -4 40 -41 209 -464 101 -253 186 -458
188 -455 3 3 38 187 77 410 40 223 75 408 77 410 6 6 397 -60 405 -68 6 -7
-262 -1525 -272 -1535 -6 -6 -391 54 -405 63 -3 2 -89 212 -190 466 -102 254
-186 456 -187 448 -39 -223 -146 -815 -148 -820 -4 -5 -406 58 -411 64 -1 2
270 1525 275 1546 1 2 11 1 24 -2 12 -3 92 -18 177 -32z m3782 14 c75 -25 133
-64 187 -125 39 -45 111 -173 111 -199 0 -7 -74 -33 -182 -64 -101 -29 -190
-54 -199 -57 -12 -3 -26 11 -47 50 -42 73 -88 101 -167 100 -105 -1 -180 -56
-178 -130 1 -36 22 -67 57 -86 10 -5 98 -14 195 -19 351 -18 471 -52 585 -167
26 -26 62 -78 81 -117 120 -251 36 -531 -205 -676 -69 -42 -187 -81 -315 -105
-123 -22 -308 -16 -383 14 -110 43 -218 152 -282 287 -53 110 -61 101 143 161
99 29 189 55 202 58 19 5 25 0 39 -38 22 -58 81 -125 130 -147 50 -23 129 -24
187 -4 146 52 162 216 28 283 -38 19 -73 24 -195 32 -191 13 -281 26 -368 56
-167 56 -266 172 -296 347 -39 225 101 422 365 512 167 57 395 72 507 34z
m-1108 -196 c2 -10 10 -244 17 -520 12 -461 11 -508 -4 -590 -25 -128 -82
-240 -168 -326 -122 -122 -244 -161 -504 -160 -269 1 -370 34 -494 161 -89 90
-121 149 -157 287 -25 96 -26 120 -42 608 -8 279 -13 510 -9 513 3 3 102 8
220 11 l215 6 6 -144 c3 -79 11 -304 17 -499 10 -377 16 -423 63 -491 77 -112
294 -110 376 3 51 69 52 100 35 624 -8 263 -15 489 -15 501 0 22 3 22 128 26
333 8 310 8 316 -10z"/>
<path d="M18100 29310 l0 -173 95 6 c110 6 159 26 192 76 30 44 31 126 3 180
-27 54 -71 72 -191 78 l-99 6 0 -173z"/>
<path d="M22967 26488 c-16 -12 -17 -65 -17 -652 -1 -518 2 -642 13 -653 10
-11 192 -13 987 -13 l975 0 18 21 c16 20 17 66 17 645 0 611 0 624 -20 644
-20 20 -33 20 -988 20 -759 0 -972 -3 -985 -12z"/>
<path d="M23797 24703 c-4 -3 -7 -12 -7 -20 0 -10 33 -13 158 -13 87 0 162 3
165 7 4 3 2 12 -4 20 -9 10 -48 13 -159 13 -80 0 -150 -3 -153 -7z"/>
<path d="M16675 12609 c-621 -335 -1213 -654 -1315 -709 l-185 -100 2635 0
2635 0 -220 119 c-488 264 -2417 1301 -2419 1300 0 0 -509 -275 -1131 -610z"/>
<path d="M25700 14166 c0 -5 450 -283 471 -291 12 -4 24 23 57 131 24 75 42
138 40 140 -2 2 -118 6 -258 9 -140 3 -267 8 -282 10 -16 3 -28 3 -28 1z"/>
<path d="M9796 13554 c-83 -36 -152 -66 -154 -68 -11 -12 78 -174 111 -203 68
-60 168 -52 237 17 46 46 55 88 35 157 -20 67 -63 163 -72 162 -5 0 -75 -30
-157 -65z"/>
<path d="M25162 12963 c-40 -8 -87 -67 -146 -182 l-57 -111 141 -70 c77 -38
141 -70 143 -70 11 0 99 204 109 253 11 53 11 62 -7 95 -30 56 -120 97 -183
85z"/>
<path d="M24340 11486 c0 -7 291 -369 325 -405 l22 -23 87 112 c47 62 86 115
86 119 0 5 -269 111 -507 199 -7 2 -13 1 -13 -2z"/>
<path d="M14024 8810 c-99 -110 -180 -204 -182 -209 -3 -8 258 -134 264 -128
6 6 104 530 100 534 -2 2 -84 -86 -182 -197z"/>
<path d="M20900 8817 c0 -21 71 -531 74 -534 3 -3 267 105 273 111 2 2 -65 88
-148 192 -207 257 -199 248 -199 231z"/>
</g>
</svg>
